<?xml version="1.0" encoding="UTF-8"?>
<svg id="_레이어_1" data-name="레이어_1" xmlns="http://www.w3.org/2000/svg" version="1.1" viewBox="0 0 420.05 192.36">
  <!-- Generator: Adobe Illustrator 30.5.1, SVG Export Plug-In . SVG Version: 2.1.4 Build 3)  -->
  <defs>
    <style>
      .st0 {
        fill: #231815;
      }

      .st1 {
        fill: #0b308e;
      }
    </style>
  </defs>
  <path class="st0" d="M0,1.11h39.3c20.09,0,31.42,10.44,31.42,26.98,0,6.44-4.33,13.77-10.55,16.1,8.66,2.78,14.76,11.21,14.76,19.98,0,16.76-11.99,27.42-32.3,27.42H0V1.11ZM38.41,37.75c7.66,0,12.1-3.33,12.1-9.66s-4.44-9.77-12.1-9.77h-18.21v19.43h18.21ZM41.74,74.38c7.99,0,12.99-3.55,12.99-10.21s-5-10.21-12.99-10.21h-21.54v20.43h21.54Z"/>
  <path class="st0" d="M107.01,1.11v72.6h45.18v17.87h-65.39V1.11h20.2Z"/>
  <path class="st0" d="M158.29,1.11h20.2v50.4c0,14.43,7.99,24.09,21.2,24.09s21.2-9.66,21.2-24.09V1.11h20.2v50.4c0,25.64-16.54,42.3-41.41,42.3s-41.41-16.65-41.41-42.3V1.11Z"/>
  <path class="st0" d="M255.97,1.11h67.27v17.54h-47.07v18.43h43.18v17.54h-43.18v19.43h48.07v17.54h-68.27V1.11Z"/>
  <path class="st1" d="M344.96,1.11h6.33c2.13,0,4.16.95,5.52,2.59l30.34,36.53c4.29,5.17,12.69,2.13,12.69-4.58V7.17c0-3.96,3.21-7.17,7.17-7.17h5.86c3.96,0,7.17,3.21,7.17,7.17v76.13c0,3.96-3.21,7.17-7.17,7.17h-6.33c-2.13,0-4.16-.95-5.52-2.59l-30.34-36.53c-4.29-5.17-12.69-2.13-12.69,4.58v28.47c0,3.96-3.21,7.17-7.17,7.17h-5.86c-3.96,0-7.17-3.21-7.17-7.17V8.28c0-3.96,3.21-7.17,7.17-7.17Z"/>
  <path class="st0" d="M117.12,107.89l-24.36,84.47h-19.07l-15.13-52.96-15.13,52.96h-19.07L0,107.89h20.21l14.51,55.24,14.51-55.24h19.59l14.41,55.04,14.61-55.04h19.28Z"/>
  <path class="st0" d="M166.45,175.98h-32.75l-5.91,16.38h-19.48l32.75-84.47h19.59l32.75,84.47h-21.04l-5.91-16.38ZM160.64,159.61l-10.57-29.43-10.57,29.43h21.14Z"/>
  <path class="st0" d="M258.68,124.58h-27.46v67.78h-18.86v-67.78h-27.47v-16.69h73.8v16.69Z"/>
  <path class="st0" d="M268.83,107.89h62.81v16.38h-43.94v17.2h40.32v16.38h-40.32v18.14h44.88v16.38h-63.74v-84.47Z"/>
  <path class="st0" d="M395.48,192.36l-16.38-26.64h-15.03v26.64h-18.86v-84.47h33.99c21.46,0,34,11.4,34,28.92,0,11.61-5.49,20.52-15.44,25.19l19.59,30.37h-21.87ZM364.08,149.04h14.3c9.95,0,15.96-4.25,15.96-12.23s-6.01-12.23-15.96-12.23h-14.3v24.46Z"/>
</svg>