<?xml version="1.0" encoding="UTF-8"?>
<svg id="_레이어_1" data-name="레이어_1" xmlns="http://www.w3.org/2000/svg" version="1.1" viewBox="0 0 945.36 104.22">
  <!-- Generator: Adobe Illustrator 30.5.1, SVG Export Plug-In . SVG Version: 2.1.4 Build 3)  -->
  <defs>
    <style>
      .st0 {
        fill: #0b308e;
      }

      .st1 {
        fill: #fff;
      }
    </style>
  </defs>
  <path class="st1" d="M0,1.23h43.66c22.32,0,34.9,11.59,34.9,29.97,0,7.15-4.81,15.29-11.72,17.88,9.62,3.08,16.4,12.46,16.4,22.2,0,18.62-13.32,30.46-35.89,30.46H0V1.23ZM42.67,41.93c8.51,0,13.44-3.7,13.44-10.73s-4.93-10.85-13.44-10.85h-20.23v21.58h20.23ZM46.37,82.63c8.88,0,14.43-3.95,14.43-11.35s-5.55-11.35-14.43-11.35h-23.93v22.69h23.93Z"/>
  <path class="st1" d="M118.88,1.23v80.66h50.2v19.86h-72.64V1.23h22.45Z"/>
  <path class="st1" d="M175.86,1.23h22.45v55.99c0,16.03,8.88,26.76,23.56,26.76s23.56-10.73,23.56-26.76V1.23h22.45v55.99c0,28.49-18.38,46.99-46,46.99s-46-18.5-46-46.99V1.23Z"/>
  <path class="st1" d="M284.38,1.23h74.74v19.49h-52.29v20.47h47.98v19.49h-47.98v21.58h53.4v19.49h-75.85V1.23Z"/>
  <path class="st0" d="M383.24,1.23h7.04c2.37,0,4.62,1.05,6.13,2.88l33.7,40.58c4.77,5.74,14.1,2.37,14.1-5.09V7.97c0-4.4,3.57-7.97,7.97-7.97h6.51c4.4,0,7.97,3.57,7.97,7.97v84.58c0,4.4-3.57,7.97-7.97,7.97h-7.04c-2.37,0-4.62-1.05-6.13-2.88l-33.7-40.58c-4.77-5.74-14.1-2.37-14.1,5.09v31.63c0,4.4-3.57,7.97-7.97,7.97h-6.51c-4.4,0-7.97-3.57-7.97-7.97V9.2c0-4.4,3.57-7.97,7.97-7.97Z"/>
  <path class="st1" d="M611.81,2.61l-27.06,93.84h-21.18l-16.81-58.84-16.81,58.84h-21.19L481.7,2.61h22.45l16.12,61.37,16.12-61.37h21.76l16.01,61.14,16.24-61.14h21.42Z"/>
  <path class="st1" d="M666.61,78.26h-36.39l-6.57,18.19h-21.65L638.4,2.61h21.76l36.39,93.84h-23.38l-6.56-18.19ZM660.16,60.06l-11.74-32.7-11.75,32.7h23.49Z"/>
  <path class="st1" d="M769.08,21.15h-30.51v75.31h-20.96V21.15h-30.52V2.61h81.98v18.54Z"/>
  <path class="st1" d="M780.36,2.61h69.78v18.19h-48.82v19.11h44.79v18.19h-44.79v20.15h49.86v18.19h-70.82V2.61Z"/>
  <path class="st1" d="M921.06,96.45l-18.2-29.59h-16.69v29.59h-20.96V2.61h37.77c23.84,0,37.77,12.67,37.77,32.13,0,12.9-6.1,22.8-17.16,27.98l21.76,33.74h-24.29ZM886.18,48.32h15.89c11.06,0,17.73-4.72,17.73-13.59s-6.68-13.59-17.73-13.59h-15.89v27.17Z"/>
</svg>