<?xml version="1.0" encoding="UTF-8"?>
<svg id="_레이어_1" data-name="레이어_1" xmlns="http://www.w3.org/2000/svg" version="1.1" viewBox="0 0 941.73 103.82">
  <!-- Generator: Adobe Illustrator 30.5.1, SVG Export Plug-In . SVG Version: 2.1.4 Build 3)  -->
  <defs>
    <style>
      .st0 {
        fill: #231815;
      }

      .st1 {
        fill: #0b308e;
      }
    </style>
  </defs>
  <path class="st0" d="M0,1.23h43.49c22.24,0,34.77,11.55,34.77,29.85,0,7.13-4.79,15.24-11.67,17.81,9.58,3.07,16.34,12.41,16.34,22.11,0,18.55-13.27,30.35-35.75,30.35H0V1.23ZM42.51,41.77c8.48,0,13.39-3.69,13.39-10.69s-4.91-10.81-13.39-10.81h-20.15v21.5h20.15ZM46.2,82.32c8.84,0,14.37-3.93,14.37-11.3s-5.53-11.3-14.37-11.3h-23.84v22.61h23.84Z"/>
  <path class="st0" d="M118.43,1.23v80.35h50.01v19.78h-72.37V1.23h22.36Z"/>
  <path class="st0" d="M175.18,1.23h22.36v55.78c0,15.97,8.85,26.66,23.47,26.66s23.47-10.69,23.47-26.66V1.23h22.36v55.78c0,28.38-18.31,46.81-45.83,46.81s-45.83-18.43-45.83-46.81V1.23Z"/>
  <path class="st0" d="M283.29,1.23h74.45v19.41h-52.09v20.39h47.79v19.41h-47.79v21.5h53.2v19.41h-75.56V1.23Z"/>
  <path class="st1" d="M381.77,1.23h7.01c2.36,0,4.6,1.05,6.11,2.87l33.58,40.42c4.75,5.72,14.05,2.36,14.05-5.07V7.94c0-4.38,3.55-7.94,7.94-7.94h6.48c4.38,0,7.94,3.55,7.94,7.94v84.25c0,4.38-3.55,7.94-7.94,7.94h-7.01c-2.36,0-4.6-1.05-6.11-2.87l-33.58-40.42c-4.75-5.72-14.05-2.36-14.05,5.07v31.51c0,4.38-3.55,7.94-7.94,7.94h-6.48c-4.38,0-7.94-3.55-7.94-7.94V9.17c0-4.38,3.55-7.94,7.94-7.94Z"/>
  <path class="st0" d="M609.47,2.6l-26.96,93.48h-21.1l-16.75-58.61-16.75,58.61h-21.11L479.85,2.6h22.37l16.06,61.14,16.06-61.14h21.68l15.94,60.91,16.17-60.91h21.34Z"/>
  <path class="st0" d="M664.06,77.96h-36.25l-6.54,18.12h-21.56L635.95,2.6h21.68l36.25,93.48h-23.29l-6.54-18.12ZM657.63,59.83l-11.7-32.58-11.7,32.58h23.4Z"/>
  <path class="st0" d="M766.14,21.07h-30.4v75.02h-20.88V21.07h-30.4V2.6h81.67v18.47Z"/>
  <path class="st0" d="M777.37,2.6h69.51v18.12h-48.63v19.04h44.62v18.12h-44.62v20.07h49.67v18.12h-70.54V2.6Z"/>
  <path class="st0" d="M917.53,96.08l-18.13-29.48h-16.63v29.48h-20.88V2.6h37.62c23.74,0,37.62,12.62,37.62,32,0,12.85-6.08,22.71-17.09,27.87l21.68,33.61h-24.2ZM882.78,48.14h15.83c11.01,0,17.67-4.7,17.67-13.54s-6.65-13.54-17.67-13.54h-15.83v27.07Z"/>
</svg>